# xmcd
#
# Track frame offsets:
#	150
#	12891
#	25061
#	38279
#	54302
#	68556
#	81865
#	97520
#	112971
#	126800
#	142101
#	157189
#	171633
#	185783
#	200981
#	215238
#	229373
#	242635
#	256188
#	269749
#	281948
#	294916
#	309113
#	322808
#
# Disc length: 4501 seconds
#
# Revision: 1
# Processed by: cddbd v1.4PL0 Copyright (c) Steve Scherf et al.
# Submitted via: EasyCDDAExtractor 5.0.6
#
DISCID=5e119318
DTITLE=The Carolina Tar Heels
DYEAR=1900
DGENRE=country
TTITLE0=I Love My Mountain Home
TTITLE1=Farm Girl Blues
TTITLE2=Washing Mama's Dishes 
TTITLE3=There's A Man Going Round Taking Names 
TTITLE4=I Don't Like The Blues No How 
TTITLE5=The Old Grey Goose 
TTITLE6=Hand In Hand We Have Walked Along Together 
TTITLE7=The Apron String Blues 
TTITLE8=Roll On Boys 
TTITLE9=Somebody's Tall And Handsome 
TTITLE10=Rude And Rambling Man 
TTITLE11=Oh, How I Hate It 
TTITLE12=The Bulldog Down In Sunny Tennessee 
TTITLE13=My Home's Across The Blue Ridge Mountains 
TTITLE14=Who's Gonna Kiss Your Lips Dear Darling 
TTITLE15=Roll On Daddy Roll On 
TTITLE16=Her Name Was Hula Lou
TTITLE17=Going to Georgia
TTITLE18=Bring Me a Leaf From the Sea
TTITLE19=Peg and Awl
TTITLE20=Goodbye My Bonnie
TTITLE21=When the Good Lord Sets Me Free
TTITLE22=You're a Little Too Small
TTITLE23=Got the Farmland Blues
EXTD=
EXTT0=
EXTT1=
EXTT2=
EXTT3=
EXTT4=
EXTT5=
EXTT6=
EXTT7=
EXTT8=
EXTT9=
EXTT10=
EXTT11=
EXTT12=
EXTT13=
EXTT14=
EXTT15=
EXTT16=
EXTT17=
EXTT18=
EXTT19=
EXTT20=
EXTT21=
EXTT22=
EXTT23=
PLAYORDER=
